<svg width="19" height="18" viewBox="0 0 19 18" fill="none" xmlns="http://www.w3.org/2000/svg">
<path d="M18.2105 3.41059C18.1223 3.08056 17.9099 2.86848 17.5923 2.76082C16.9899 2.55669 16.3856 2.35744 15.7821 2.15657C13.6885 1.45965 11.5946 0.763448 9.50133 0.0654426C9.25295 -0.0174726 9.00601 -0.0228919 8.75762 0.056591C8.47745 0.146371 8.19799 0.238137 7.91872 0.330988C5.93761 0.990516 3.95631 1.64932 1.97592 2.31084C1.48656 2.47432 0.998281 2.64141 0.513074 2.81646C0.23669 2.91635 0.0719437 3.12373 0.0249765 3.41438C0.00528642 3.53524 0.00113163 3.65988 0.000950989 3.7829C-0.000313513 5.98783 4.77734e-05 8.19276 4.77734e-05 10.3977C4.77734e-05 10.4398 4.77734e-05 10.482 0.00203485 10.524C0.0217249 10.8784 0.261077 11.1853 0.606828 11.3004C0.943185 11.4122 1.32037 11.3051 1.54708 11.0361C1.71363 10.8385 1.76367 10.6054 1.76331 10.3556C1.7624 9.78404 1.76023 9.21267 1.76005 8.64111C1.75951 7.40479 1.75987 6.16847 1.76005 4.93215C1.76005 4.90108 1.76349 4.86983 1.76601 4.8281C2.56933 5.09581 3.35947 5.35937 4.15899 5.62582C3.46424 6.89231 3.25253 8.22202 3.56341 9.62598C3.87448 11.0305 4.6144 12.1582 5.78749 13.0152C5.75534 13.0302 5.74197 13.0367 5.72824 13.0427C4.34379 13.6518 3.20032 14.5617 2.30831 15.785C2.16343 15.9839 2.00663 16.177 1.94431 16.4227C1.85778 16.7639 1.93221 17.0636 2.20155 17.2968C2.45643 17.5176 2.75052 17.5904 3.07441 17.4684C3.30004 17.3833 3.45575 17.2115 3.58906 17.0183C3.92199 16.5359 4.29755 16.0896 4.7497 15.716C6.39788 14.3532 8.27314 13.8247 10.3867 14.2217C11.974 14.52 13.2712 15.3133 14.2898 16.5634C14.4681 16.7823 14.6204 17.0233 14.8068 17.2345C15.1977 17.6772 15.9201 17.5956 16.2041 17.082C16.3943 16.7379 16.3408 16.403 16.1286 16.0872C15.2548 14.7866 14.1126 13.7976 12.6917 13.1333C12.6116 13.096 12.5314 13.0589 12.4382 13.0157C13.6081 12.1584 14.3449 11.0336 14.6585 9.63212C14.9734 8.22527 14.7579 6.89538 14.0723 5.6316C14.0982 5.62202 14.1117 5.61642 14.1256 5.61191C14.7747 5.39441 15.4241 5.17746 16.0729 4.95924C16.5853 4.78709 17.0977 4.61476 17.609 4.43917C17.8685 4.35012 18.066 4.18591 18.1682 3.92615C18.1989 3.84811 18.2174 3.77621 18.3333 3.81324C18.2889 3.66855 18.2452 3.54084 18.2105 3.41059ZM11.8808 11.1898C11.2104 11.8696 10.393 12.2417 9.43865 12.3121C8.30042 12.3963 7.3011 12.0583 6.45099 11.3047C5.96235 10.8717 5.64948 10.3117 5.41826 9.70673C5.25712 9.28474 5.17276 8.84687 5.17547 8.37701C5.17294 7.68894 5.38953 7.04694 5.73547 6.44232C5.78279 6.35995 5.81838 6.24 5.88937 6.21092C5.95549 6.18382 6.06225 6.25355 6.15022 6.28318C6.99238 6.56607 7.83418 6.84931 8.67616 7.13256C8.96789 7.23065 9.25963 7.23228 9.55209 7.13437C10.4513 6.83306 11.3509 6.53319 12.2495 6.22935C12.3275 6.20297 12.3678 6.21182 12.416 6.28444C12.786 6.84082 12.9961 7.4523 13.025 8.11761C13.0764 9.29992 12.7195 10.339 11.8808 11.1898ZM14.1384 3.75002C12.5183 4.28852 10.8975 4.82611 9.2777 5.36587C9.16985 5.40182 9.0696 5.40128 8.96157 5.36533C7.233 4.7898 5.50388 4.21626 3.77477 3.64218C3.74695 3.63296 3.72003 3.62158 3.67577 3.6046C3.72057 3.58834 3.74911 3.57714 3.77802 3.56739C5.51761 2.98825 7.2572 2.4082 8.99824 1.83285C9.06923 1.80937 9.16172 1.80937 9.23272 1.83304C10.9794 2.41091 12.7244 2.99349 14.4696 3.57534C14.4911 3.58256 14.512 3.59105 14.5541 3.60695C14.4027 3.65916 14.271 3.70612 14.1384 3.75002Z" fill="#F6F6F6"/>
</svg>
